<svg viewBox="0 0 128 128" xmlns="http://www.w3.org/2000/svg"><style>.st6{fill:#1d409d}</style><g id="Word"><path class="st6" d="M104 126H24c-5.5 0-10-4.5-10-10V12c0-5.5 4.5-10 10-10h40.7c2.7 0 5.2 1 7.1 2.9l39.3 39.3c1.9 1.9 2.9 4.4 2.9 7.1V116c0 5.5-4.5 10-10 10zM24 6c-3.3 0-6 2.7-6 6v104c0 3.3 2.7 6 6 6h80c3.3 0 6-2.7 6-6V51.3c0-1.6-.6-3.1-1.8-4.2L68.9 7.8C67.8 6.6 66.3 6 64.7 6H24z"/><path class="st6" d="M78.7 96h-8.3l-4.6-18c-.2-.6-.5-2-.9-4s-.7-3.4-.7-4c-.1.8-.3 2.2-.7 4.1s-.7 3.2-.9 4L58 96h-8.3L41 61.7h7.1l4.4 18.7c.8 3.5 1.3 6.4 1.7 9 .1-.9.3-2.3.6-4.1s.7-3.3.9-4.3l5-19.2h6.9l5 19.2c.2.9.5 2.2.8 3.9s.6 3.3.8 4.5c.2-1.2.4-2.7.8-4.6s.7-3.3.9-4.4l4.4-18.7h7.1L78.7 96z"/></g></svg>