<svg viewBox="0 0 128 128" xmlns="http://www.w3.org/2000/svg"><style>.st3{fill:#61bee2}</style><g id="Image"><path class="st3" d="M104 126H24c-5.5 0-10-4.5-10-10V12c0-5.5 4.5-10 10-10h40.7c2.7 0 5.2 1 7.1 2.9l39.3 39.3c1.9 1.9 2.9 4.4 2.9 7.1V116c0 5.5-4.5 10-10 10zM24 6c-3.3 0-6 2.7-6 6v104c0 3.3 2.7 6 6 6h80c3.3 0 6-2.7 6-6V51.3c0-1.6-.6-3.1-1.8-4.2L68.9 7.8C67.8 6.6 66.3 6 64.7 6H24z"/><path class="st3" d="M62 96c-1.3 0-2.6-.4-3.7-1.2l-21-16.3c-.7-.6-1.7-.6-2.5 0l-17.5 14-2.5-3.1 17.5-14c2.2-1.7 5.2-1.8 7.4-.1l21.1 16.2c.7.5 1.7.6 2.4 0L87.6 73c2-1.5 4.7-1.6 6.8-.3l18.7 11.6-2.1 3.4-18.7-11.6c-.7-.4-1.6-.4-2.3.1L65.6 94.7c-1 .9-2.3 1.3-3.6 1.3zM53 58c-7.2 0-13-5.8-13-13s5.8-13 13-13 13 5.8 13 13-5.8 13-13 13zm0-22c-5 0-9 4-9 9s4 9 9 9 9-4 9-9-4-9-9-9z"/></g></svg>