<svg viewBox="0 0 128 128" xmlns="http://www.w3.org/2000/svg"><style>.st0{fill:#00b8df}</style><g id="Music"><path class="st0" d="M104 126H24c-5.5 0-10-4.5-10-10V12c0-5.5 4.5-10 10-10h40.7c2.7 0 5.2 1 7.1 2.9l39.3 39.3c1.9 1.9 2.9 4.4 2.9 7.1V116c0 5.5-4.5 10-10 10zM24 6c-3.3 0-6 2.7-6 6v104c0 3.3 2.7 6 6 6h80c3.3 0 6-2.7 6-6V51.3c0-1.6-.6-3.1-1.8-4.2L68.9 7.8C67.8 6.6 66.3 6 64.7 6H24z"/><path class="st0" d="M57 89h-4V58.5c0-1.8 1.2-3.4 2.9-3.9l21-5.5c1.2-.3 2.5-.1 3.5.7 1 .8 1.6 1.9 1.6 3.2v30.4h-4V53l-21 5.5V89z"/><ellipse class="st0" cx="47.5" cy="89" rx="7.5" ry="5"/><path class="st0" d="M47.5 96c-5.3 0-9.5-3.1-9.5-7s4.2-7 9.5-7 9.5 3.1 9.5 7-4.2 7-9.5 7zm0-10c-3.1 0-5.5 1.6-5.5 3s2.4 3 5.5 3 5.5-1.6 5.5-3-2.4-3-5.5-3z"/><g><ellipse class="st0" cx="72.5" cy="83.4" rx="7.5" ry="5.4"/><path class="st0" d="M72.5 90.7c-5.3 0-9.5-3.2-9.5-7.4 0-4.1 4.2-7.4 9.5-7.4s9.5 3.2 9.5 7.4-4.2 7.4-9.5 7.4zm0-10.7c-2.9 0-5.5 1.6-5.5 3.4 0 1.6 2.3 3.4 5.5 3.4S78 85 78 83.4c0-1.8-2.6-3.4-5.5-3.4z"/></g></g></svg>