<svg viewBox="0 0 128 128" xmlns="http://www.w3.org/2000/svg"><style>.st8{fill:#ff5a29}</style><g id="Powerpoint"><path class="st8" d="M104 126H24c-5.5 0-10-4.5-10-10V12c0-5.5 4.5-10 10-10h40.7c2.7 0 5.2 1 7.1 2.9l39.3 39.3c1.9 1.9 2.9 4.4 2.9 7.1V116c0 5.5-4.5 10-10 10zM24 6c-3.3 0-6 2.7-6 6v104c0 3.3 2.7 6 6 6h80c3.3 0 6-2.7 6-6V51.3c0-1.6-.6-3.1-1.8-4.2L68.9 7.8C67.8 6.6 66.3 6 64.7 6H24z"/><path class="st8" d="M76 72.4c0 3.7-1.2 6.5-3.5 8.5s-5.6 2.9-9.8 2.9h-3.1V96h-7.3V61.7h10.9c4.2 0 7.3.9 9.5 2.7s3.3 4.5 3.3 8zm-16.4 5.5H62c2.2 0 3.9-.4 5-1.3s1.7-2.2 1.7-3.9c0-1.7-.5-3-1.4-3.8s-2.4-1.2-4.4-1.2h-3.3v10.2z"/></g></svg>