<svg viewBox="0 0 128 128" xmlns="http://www.w3.org/2000/svg"><style>.st7{fill:#007732}</style><g id="Exel"><path class="st7" d="M80 96h-8.3l-8-13-8 13H48l11.4-17.7-10.7-16.6h8L64.1 74l7.2-12.3h7.8l-10.8 17L80 96z"/><path class="st7" d="M104 126H24c-5.5 0-10-4.5-10-10V12c0-5.5 4.5-10 10-10h40.7c2.7 0 5.2 1 7.1 2.9l39.3 39.3c1.9 1.9 2.9 4.4 2.9 7.1V116c0 5.5-4.5 10-10 10zM24 6c-3.3 0-6 2.7-6 6v104c0 3.3 2.7 6 6 6h80c3.3 0 6-2.7 6-6V51.3c0-1.6-.6-3.1-1.8-4.2L68.9 7.8C67.8 6.6 66.3 6 64.7 6H24z"/></g></svg>